# xmcd
#
# Track frame offsets:
#	150
#	19425
#	34168
#	54960
#	75898
#	91288
#	113193
#	132944
#	153549
#
# Disc length: 2347 seconds
#
# Revision: 0
# Processed by: cddbd v1.5.2PL0 Copyright (c) Steve Scherf et al.
# Submitted via: EasyCDDAExtractor 15.0.0.1
#
DISCID=67092909
DTITLE=Hoang Nghi Lam - Nguoi La
DYEAR=2010
DGENRE=Vietnamese music
TTITLE0=nguoi la
TTITLE1=phut cuoi cung
TTITLE2=nu cuoi va nuoc mat
TTITLE3=sao em khong the
TTITLE4=hay noi gium em
TTITLE5=mot ngay thoi anh
TTITLE6=voi
TTITLE7=chi la giac mo
TTITLE8=neu ngay mai
EXTD=
EXTT0=
EXTT1=
EXTT2=
EXTT3=
EXTT4=
EXTT5=
EXTT6=
EXTT7=
EXTT8=
PLAYORDER=
